<?xml version="1.0" encoding="us-ascii" standalone="no"?>
<svg xmlns="http://www.w3.org/2000/svg" xmlns:xlink="http://www.w3.org/1999/xlink" contentStyleType="text/css"
     height="314px" preserveAspectRatio="none" style="width:290px;height:314px;background:#FFFFFF;" version="1.1"
     viewBox="0 0 290 314" width="290px" zoomAndPan="magnify">
    <defs/>
    <g><!--class AppExpression-->
        <g id="elem_AppExpression">
            <rect fill="#F1F1F1" height="66.6211" id="AppExpression" rx="2.5" ry="2.5"
                  style="stroke:#181818;stroke-width:0.5;" width="145" x="57.5" y="7"/>
            <ellipse cx="81.05" cy="23" fill="#ADD1B2" rx="11" ry="11" style="stroke:#181818;stroke-width:1.0;"/>
            <path d="M83.8156,18.875 Q83.9719,18.6563 84.1594,18.5469 Q84.3469,18.4375 84.5656,18.4375 Q84.9406,18.4375 85.175,18.7031 Q85.4094,18.9531 85.4094,19.5625 L85.4094,21.0156 Q85.4094,21.625 85.175,21.8906 Q84.9406,22.1563 84.5656,22.1563 Q84.2219,22.1563 84.0188,21.9531 Q83.8156,21.7656 83.7063,21.25 Q83.6594,20.8906 83.4719,20.7031 Q83.1438,20.3281 82.5344,20.1094 Q81.925,19.8906 81.3,19.8906 Q80.5344,19.8906 79.8938,20.2188 Q79.2688,20.5469 78.7688,21.2969 Q78.2844,22.0469 78.2844,23.0781 L78.2844,24.1719 Q78.2844,25.4063 79.175,26.2344 Q80.0656,27.0469 81.6594,27.0469 Q82.5969,27.0469 83.2531,26.7969 Q83.6438,26.6406 84.0656,26.2031 Q84.3313,25.9375 84.4719,25.8594 Q84.6281,25.7813 84.8313,25.7813 Q85.1594,25.7813 85.4094,26.0469 Q85.675,26.2969 85.675,26.6406 Q85.675,26.9844 85.3313,27.3906 Q84.8313,27.9688 84.0344,28.2969 Q82.9563,28.75 81.6594,28.75 Q80.1438,28.75 78.9406,28.125 Q77.9563,27.625 77.2688,26.5625 Q76.5813,25.4844 76.5813,24.2031 L76.5813,23.0469 Q76.5813,21.7188 77.1906,20.5781 Q77.8156,19.4219 78.9094,18.8125 Q80.0031,18.1875 81.2375,18.1875 Q81.9719,18.1875 82.6125,18.3594 Q83.2688,18.5156 83.8156,18.875 Z "
                  fill="#000000"/>
            <text fill="#000000" font-family="sans-serif" font-size="14" lengthAdjust="spacing" textLength="94"
                  x="96.95" y="28.7969">AppExpression
            </text>
            <line style="stroke:#181818;stroke-width:0.5;" x1="58.5" x2="201.5" y1="39" y2="39"/>
            <line style="stroke:#181818;stroke-width:0.5;" x1="58.5" x2="201.5" y1="47" y2="47"/>
            <ellipse cx="68.5" cy="61.8105" fill="#84BE84" rx="3" ry="3" style="stroke:#038048;stroke-width:1.0;"/>
            <text fill="#000000" font-family="sans-serif" font-size="14" lengthAdjust="spacing" textLength="119"
                  x="77.5" y="66.1074">main(String[]): void
            </text>
        </g><!--class Expression-->
        <g id="elem_Expression">
            <rect fill="#F1F1F1" height="66.6211" id="Expression" rx="2.5" ry="2.5"
                  style="stroke:#181818;stroke-width:0.5;" width="177" x="106.5" y="241"/>
            <ellipse cx="156.25" cy="257" fill="#B4A7E5" rx="11" ry="11" style="stroke:#181818;stroke-width:1.0;"/>
            <path d="M157.2031,253.6406 L157.2031,260.2969 L158.9219,260.2969 Q159.5313,260.2969 159.7969,260.5313 Q160.0625,260.7656 160.0625,261.1563 Q160.0625,261.5313 159.7969,261.7656 Q159.5313,262 158.9219,262 L153.7813,262 Q153.1719,262 152.9063,261.7656 Q152.6406,261.5313 152.6406,261.1406 Q152.6406,260.7656 152.9063,260.5313 Q153.1719,260.2969 153.7813,260.2969 L155.5,260.2969 L155.5,253.6406 L153.7813,253.6406 Q153.1719,253.6406 152.9063,253.4063 Q152.6406,253.1719 152.6406,252.7813 Q152.6406,252.4063 152.9063,252.1719 Q153.1719,251.9375 153.7813,251.9375 L158.9219,251.9375 Q159.5313,251.9375 159.7969,252.1719 Q160.0625,252.4063 160.0625,252.7813 Q160.0625,253.1719 159.7969,253.4063 Q159.5313,253.6406 158.9219,253.6406 L157.2031,253.6406 Z "
                  fill="#000000"/>
            <text fill="#000000" font-family="sans-serif" font-size="14" font-style="italic" lengthAdjust="spacing"
                  textLength="69" x="176.75" y="262.7969">Expression
            </text>
            <line style="stroke:#181818;stroke-width:0.5;" x1="107.5" x2="282.5" y1="273" y2="273"/>
            <line style="stroke:#181818;stroke-width:0.5;" x1="107.5" x2="282.5" y1="281" y2="281"/>
            <ellipse cx="117.5" cy="295.8105" fill="#84BE84" rx="3" ry="3" style="stroke:#038048;stroke-width:1.0;"/>
            <text fill="#000000" font-family="sans-serif" font-size="14" lengthAdjust="spacing" textLength="151"
                  x="126.5" y="300.1074">calculerValeur(): double
            </text>
        </g><!--class Nombre-->
        <g id="elem_Nombre">
            <rect fill="#F1F1F1" height="66.6211" id="Nombre" rx="2.5" ry="2.5"
                  style="stroke:#181818;stroke-width:0.5;" width="116" x="7" y="124"/>
            <ellipse cx="37.75" cy="140" fill="#ADD1B2" rx="11" ry="11" style="stroke:#181818;stroke-width:1.0;"/>
            <path d="M40.5156,135.875 Q40.6719,135.6563 40.8594,135.5469 Q41.0469,135.4375 41.2656,135.4375 Q41.6406,135.4375 41.875,135.7031 Q42.1094,135.9531 42.1094,136.5625 L42.1094,138.0156 Q42.1094,138.625 41.875,138.8906 Q41.6406,139.1563 41.2656,139.1563 Q40.9219,139.1563 40.7188,138.9531 Q40.5156,138.7656 40.4063,138.25 Q40.3594,137.8906 40.1719,137.7031 Q39.8438,137.3281 39.2344,137.1094 Q38.625,136.8906 38,136.8906 Q37.2344,136.8906 36.5938,137.2188 Q35.9688,137.5469 35.4688,138.2969 Q34.9844,139.0469 34.9844,140.0781 L34.9844,141.1719 Q34.9844,142.4063 35.875,143.2344 Q36.7656,144.0469 38.3594,144.0469 Q39.2969,144.0469 39.9531,143.7969 Q40.3438,143.6406 40.7656,143.2031 Q41.0313,142.9375 41.1719,142.8594 Q41.3281,142.7813 41.5313,142.7813 Q41.8594,142.7813 42.1094,143.0469 Q42.375,143.2969 42.375,143.6406 Q42.375,143.9844 42.0313,144.3906 Q41.5313,144.9688 40.7344,145.2969 Q39.6563,145.75 38.3594,145.75 Q36.8438,145.75 35.6406,145.125 Q34.6563,144.625 33.9688,143.5625 Q33.2813,142.4844 33.2813,141.2031 L33.2813,140.0469 Q33.2813,138.7188 33.8906,137.5781 Q34.5156,136.4219 35.6094,135.8125 Q36.7031,135.1875 37.9375,135.1875 Q38.6719,135.1875 39.3125,135.3594 Q39.9688,135.5156 40.5156,135.875 Z "
                  fill="#000000"/>
            <text fill="#000000" font-family="sans-serif" font-size="14" lengthAdjust="spacing" textLength="49"
                  x="55.25" y="145.7969">Nombre
            </text>
            <line style="stroke:#181818;stroke-width:0.5;" x1="8" x2="122" y1="156" y2="156"/>
            <rect fill="none" height="6" style="stroke:#C82930;stroke-width:1.0;" width="6" x="15" y="167.8105"/>
            <text fill="#000000" font-family="sans-serif" font-size="14" lengthAdjust="spacing" textLength="90" x="27"
                  y="175.1074">valeur: double
            </text>
            <line style="stroke:#181818;stroke-width:0.5;" x1="8" x2="122" y1="182.6211" y2="182.6211"/>
        </g><!--class Operation-->
        <g id="elem_Operation">
            <rect fill="#F1F1F1" height="66.6211" id="Operation" rx="2.5" ry="2.5"
                  style="stroke:#181818;stroke-width:0.5;" width="124" x="133" y="124"/>
            <ellipse cx="161.05" cy="140" fill="#ADD1B2" rx="11" ry="11" style="stroke:#181818;stroke-width:1.0;"/>
            <path d="M163.8156,135.875 Q163.9719,135.6563 164.1594,135.5469 Q164.3469,135.4375 164.5656,135.4375 Q164.9406,135.4375 165.175,135.7031 Q165.4094,135.9531 165.4094,136.5625 L165.4094,138.0156 Q165.4094,138.625 165.175,138.8906 Q164.9406,139.1563 164.5656,139.1563 Q164.2219,139.1563 164.0188,138.9531 Q163.8156,138.7656 163.7063,138.25 Q163.6594,137.8906 163.4719,137.7031 Q163.1438,137.3281 162.5344,137.1094 Q161.925,136.8906 161.3,136.8906 Q160.5344,136.8906 159.8938,137.2188 Q159.2688,137.5469 158.7688,138.2969 Q158.2844,139.0469 158.2844,140.0781 L158.2844,141.1719 Q158.2844,142.4063 159.175,143.2344 Q160.0656,144.0469 161.6594,144.0469 Q162.5969,144.0469 163.2531,143.7969 Q163.6438,143.6406 164.0656,143.2031 Q164.3313,142.9375 164.4719,142.8594 Q164.6281,142.7813 164.8313,142.7813 Q165.1594,142.7813 165.4094,143.0469 Q165.675,143.2969 165.675,143.6406 Q165.675,143.9844 165.3313,144.3906 Q164.8313,144.9688 164.0344,145.2969 Q162.9563,145.75 161.6594,145.75 Q160.1438,145.75 158.9406,145.125 Q157.9563,144.625 157.2688,143.5625 Q156.5813,142.4844 156.5813,141.2031 L156.5813,140.0469 Q156.5813,138.7188 157.1906,137.5781 Q157.8156,136.4219 158.9094,135.8125 Q160.0031,135.1875 161.2375,135.1875 Q161.9719,135.1875 162.6125,135.3594 Q163.2688,135.5156 163.8156,135.875 Z "
                  fill="#000000"/>
            <text fill="#000000" font-family="sans-serif" font-size="14" lengthAdjust="spacing" textLength="63"
                  x="177.95" y="145.7969">Operation
            </text>
            <line style="stroke:#181818;stroke-width:0.5;" x1="134" x2="256" y1="156" y2="156"/>
            <rect fill="none" height="6" style="stroke:#C82930;stroke-width:1.0;" width="6" x="141" y="167.8105"/>
            <text fill="#000000" font-family="sans-serif" font-size="14" lengthAdjust="spacing" textLength="98" x="153"
                  y="175.1074">operateur: char
            </text>
            <line style="stroke:#181818;stroke-width:0.5;" x1="134" x2="256" y1="182.6211" y2="182.6211"/>
        </g><!--link AppExpression to Nombre-->
        <g id="link_AppExpression_Nombre">
            <path d="M90.25,74.03 C90.25,89.69 90.25,102.3 90.25,117.97 " fill="none"
                  id="AppExpression-to-Nombre" style="stroke:#181818;stroke-width:1.0;stroke-dasharray:7.0,7.0;"/>
            <polygon fill="#181818" points="90.25,123.97,94.25,114.97,90.25,118.97,86.25,114.97,90.25,123.97"
                     style="stroke:#181818;stroke-width:1.0;"/>
        </g><!--link AppExpression to Operation-->
        <g id="link_AppExpression_Operation">
            <path d="M167.75,74.03 C167.75,89.69 167.75,102.3 167.75,117.97 " fill="none"
                  id="AppExpression-to-Operation" style="stroke:#181818;stroke-width:1.0;stroke-dasharray:7.0,7.0;"/>
            <polygon fill="#181818" points="167.75,123.97,171.75,114.97,167.75,118.97,163.75,114.97,167.75,123.97"
                     style="stroke:#181818;stroke-width:1.0;"/>
        </g><!--link Nombre to Expression-->
        <g id="link_Nombre_Expression">
            <path d="M114.75,191.03 C114.75,206.69 114.75,207.3 114.75,222.97 " fill="none"
                  id="Nombre-to-Expression" style="stroke:#181818;stroke-width:1.0;stroke-dasharray:7.0,7.0;"/>
            <polygon fill="none" points="114.75,240.97,120.75,222.97,108.75,222.97,114.75,240.97"
                     style="stroke:#181818;stroke-width:1.0;"/>
        </g><!--link Operation to Expression-->
        <g id="link_Operation_Expression">
            <path d="M215.67,191.03 C215.67,206.69 215.67,207.3 215.67,222.97 " fill="none"
                  id="Operation-to-Expression" style="stroke:#181818;stroke-width:1.0;stroke-dasharray:7.0,7.0;"/>
            <polygon fill="none" points="215.67,240.97,221.67,222.97,209.67,222.97,215.67,240.97"
                     style="stroke:#181818;stroke-width:1.0;"/>
        </g><!--reverse link Operation to Expression-->
        <g id="link_Operation_Expression">
            <path d="M174.33,203.03 C174.33,218.69 174.33,225.3 174.33,240.97 " fill="none"
                  id="Operation-backto-Expression" style="stroke:#181818;stroke-width:1.0;"/>
            <polygon fill="none" points="174.33,191.03,170.33,197.03,174.33,203.03,178.33,197.03,174.33,191.03"
                     style="stroke:#181818;stroke-width:1.0;"/>
            <text fill="#000000" font-family="sans-serif" font-size="13" lengthAdjust="spacing" textLength="7"
                  x="153.784" y="229.7896">2
            </text>
        </g><!--SRC=[ZOwnJWD134Jx_OfHgY1qKK2YeK2YI0i54WsYyEqPiihUUkNrHI3WtrcEa1mA1UxiUJDZammJj68cFRgWx2r8ScKJKYQb7Z4ajjVC4BMrJ8Ga7HVEE5jEZaffytMyM3hd8vM2wvnNBrcvb9gBDmUSegUGvdUc8Jq_F9vSOYkXSnyk96Dz8iyuSdYAVeYiznHvq7drT3AqaQlhk-P6-bPvf1jiH-g8kSsiP3-X3MJSHzAlIIldVdzReSKLTjb_Q_jCj_jWFytYlUe7XplK_nEGfi7i79XDe4y0]-->
    </g>
</svg>