<?xml version="1.0" encoding="us-ascii" standalone="no"?><svg xmlns="http://www.w3.org/2000/svg" xmlns:xlink="http://www.w3.org/1999/xlink" contentStyleType="text/css" height="381px" preserveAspectRatio="none" style="width:530px;height:381px;background:#FFFFFF;" version="1.1" viewBox="0 0 530 381" width="530px" zoomAndPan="magnify"><defs/><g><!--class AppExpression--><g id="elem_AppExpression"><rect
        fill="#FFFFFF" height="60.2969" id="AppExpression" rx="2.5" ry="2.5" style="stroke:#000000;stroke-width:1.0;" width="154" x="152.5" y="12"/><ellipse cx="175.85" cy="26" fill="#FFFFFF" rx="9" ry="9" style="stroke:#000000;stroke-width:1.0;"/><path d="M178.8188,31.6406 Q178.2406,31.9375 177.6,32.0781 Q176.9594,32.2344 176.2563,32.2344 Q173.7563,32.2344 172.4281,30.5938 Q171.1156,28.9375 171.1156,25.8125 Q171.1156,22.6875 172.4281,21.0313 Q173.7563,19.375 176.2563,19.375 Q176.9594,19.375 177.6,19.5313 Q178.2563,19.6875 178.8188,19.9844 L178.8188,22.7031 Q178.1938,22.125 177.6,21.8594 Q177.0063,21.5781 176.3813,21.5781 Q175.0375,21.5781 174.35,22.6563 Q173.6625,23.7188 173.6625,25.8125 Q173.6625,27.9063 174.35,28.9844 Q175.0375,30.0469 176.3813,30.0469 Q177.0063,30.0469 177.6,29.7813 Q178.1938,29.5 178.8188,28.9219 L178.8188,31.6406 Z " fill="#000000"/><text fill="#000000" font-family="Verdana" font-size="14" lengthAdjust="spacing" textLength="103" x="190.15" y="30.8467">AppExpression</text><line style="stroke:#000000;stroke-width:1.0;" x1="153.5" x2="305.5" y1="40" y2="40"/><line style="stroke:#000000;stroke-width:1.0;" x1="153.5" x2="305.5" y1="48" y2="48"/><ellipse cx="163.5" cy="61.6484" fill="#FFFFFF" rx="3" ry="3" style="stroke:#000000;stroke-width:1.0;"/><text fill="#000000" font-family="Verdana" font-size="14" lengthAdjust="spacing" textLength="130" x="170.5" y="64.9951">main(String[]): void</text></g><!--class Expression--><g id="elem_Expression"><rect
        fill="#FFFFFF" height="72.5625" id="Expression" rx="2.5" ry="2.5" style="stroke:#000000;stroke-width:1.0;" width="187" x="260" y="301.49"/><ellipse cx="311.75" cy="321.6228" fill="#FFFFFF" rx="9" ry="9" style="stroke:#000000;stroke-width:1.0;"/><path d="M307.6719,317.3884 L307.6719,315.2322 L315.0625,315.2322 L315.0625,317.3884 L312.5938,317.3884 L312.5938,325.4666 L315.0625,325.4666 L315.0625,327.6228 L307.6719,327.6228 L307.6719,325.4666 L310.1406,325.4666 L310.1406,317.3884 L307.6719,317.3884 Z " fill="#000000"/><text fill="#000000" font-family="Verdana" font-size="12" font-style="italic" lengthAdjust="spacing" textLength="70" x="332.25" y="317.6287">&#171;interface&#187;</text><text fill="#000000" font-family="Verdana" font-size="14" font-style="italic" lengthAdjust="spacing" textLength="76" x="329.25" y="333.4539">Expression</text><line style="stroke:#000000;stroke-width:1.0;" x1="261" x2="446" y1="341.7556" y2="341.7556"/><line style="stroke:#000000;stroke-width:1.0;" x1="261" x2="446" y1="349.7556" y2="349.7556"/><ellipse cx="271" cy="363.4041" fill="#FFFFFF" rx="3" ry="3" style="stroke:#000000;stroke-width:1.0;"/><text fill="#000000" font-family="Verdana" font-size="14" lengthAdjust="spacing" textLength="163" x="278" y="366.7507">calculerValeur(): double</text></g><!--class Nombre--><g id="elem_Nombre"><rect
        fill="#FFFFFF" height="76.5938" id="Nombre" rx="2.5" ry="2.5" style="stroke:#000000;stroke-width:1.0;" width="187" x="12" y="148.6"/><ellipse cx="74.25" cy="162.6" fill="#FFFFFF" rx="9" ry="9" style="stroke:#000000;stroke-width:1.0;"/><path d="M77.2188,168.2406 Q76.6406,168.5375 76,168.6781 Q75.3594,168.8344 74.6563,168.8344 Q72.1563,168.8344 70.8281,167.1938 Q69.5156,165.5375 69.5156,162.4125 Q69.5156,159.2875 70.8281,157.6313 Q72.1563,155.975 74.6563,155.975 Q75.3594,155.975 76,156.1313 Q76.6563,156.2875 77.2188,156.5844 L77.2188,159.3031 Q76.5938,158.725 76,158.4594 Q75.4063,158.1781 74.7813,158.1781 Q73.4375,158.1781 72.75,159.2563 Q72.0625,160.3188 72.0625,162.4125 Q72.0625,164.5063 72.75,165.5844 Q73.4375,166.6469 74.7813,166.6469 Q75.4063,166.6469 76,166.3813 Q76.5938,166.1 77.2188,165.5219 L77.2188,168.2406 Z " fill="#000000"/><text fill="#000000" font-family="Verdana" font-size="14" lengthAdjust="spacing" textLength="55" x="91.75" y="167.4467">Nombre</text><line style="stroke:#000000;stroke-width:1.0;" x1="13" x2="198" y1="176.6" y2="176.6"/><rect fill="none" height="6" style="stroke:#000000;stroke-width:1.0;" width="6" x="20" y="187.2484"/><text fill="#000000" font-family="Verdana" font-size="14" lengthAdjust="spacing" textLength="98" x="30" y="193.5951">valeur: double</text><line style="stroke:#000000;stroke-width:1.0;" x1="13" x2="198" y1="200.8969" y2="200.8969"/><ellipse cx="23" cy="214.5453" fill="#FFFFFF" rx="3" ry="3" style="stroke:#000000;stroke-width:1.0;"/><text fill="#000000" font-family="Verdana" font-size="14" lengthAdjust="spacing" textLength="163" x="30" y="217.892">calculerValeur(): double</text></g><!--class Operation--><g id="elem_Operation"><rect
        fill="#FFFFFF" height="109.1875" id="Operation" rx="2.5" ry="2.5" style="stroke:#000000;stroke-width:1.0;" width="239" x="234" y="132.3"/><ellipse cx="315.75" cy="146.3" fill="#FFFFFF" rx="9" ry="9" style="stroke:#000000;stroke-width:1.0;"/><path d="M318.7188,151.9406 Q318.1406,152.2375 317.5,152.3781 Q316.8594,152.5344 316.1563,152.5344 Q313.6563,152.5344 312.3281,150.8938 Q311.0156,149.2375 311.0156,146.1125 Q311.0156,142.9875 312.3281,141.3313 Q313.6563,139.675 316.1563,139.675 Q316.8594,139.675 317.5,139.8313 Q318.1563,139.9875 318.7188,140.2844 L318.7188,143.0031 Q318.0938,142.425 317.5,142.1594 Q316.9063,141.8781 316.2813,141.8781 Q314.9375,141.8781 314.25,142.9563 Q313.5625,144.0188 313.5625,146.1125 Q313.5625,148.2063 314.25,149.2844 Q314.9375,150.3469 316.2813,150.3469 Q316.9063,150.3469 317.5,150.0813 Q318.0938,149.8 318.7188,149.2219 L318.7188,151.9406 Z " fill="#000000"/><text fill="#000000" font-family="Verdana" font-size="14" lengthAdjust="spacing" textLength="68" x="333.25" y="151.1467">Operation</text><line style="stroke:#000000;stroke-width:1.0;" x1="235" x2="472" y1="160.3" y2="160.3"/><rect fill="none" height="6" style="stroke:#000000;stroke-width:1.0;" width="6" x="242" y="170.9484"/><text fill="#000000" font-family="Verdana" font-size="14" lengthAdjust="spacing" textLength="107" x="252" y="177.2951">operateur: char</text><rect fill="none" height="6" style="stroke:#000000;stroke-width:1.0;" width="6" x="242" y="187.2453"/><text fill="#000000" font-family="Verdana" font-size="14" lengthAdjust="spacing" textLength="215" x="252" y="193.592">expressionGauche: Expression</text><rect fill="none" height="6" style="stroke:#000000;stroke-width:1.0;" width="6" x="242" y="203.5422"/><text fill="#000000" font-family="Verdana" font-size="14" lengthAdjust="spacing" textLength="203" x="252" y="209.8889">expressionDroite: Expression</text><line style="stroke:#000000;stroke-width:1.0;" x1="235" x2="472" y1="217.1906" y2="217.1906"/><ellipse cx="245" cy="230.8391" fill="#FFFFFF" rx="3" ry="3" style="stroke:#000000;stroke-width:1.0;"/><text fill="#000000" font-family="Verdana" font-size="14" lengthAdjust="spacing" textLength="163" x="252" y="234.1857">calculerValeur(): double</text></g><!--link AppExpression to Nombre--><g id="link_AppExpression_Nombre"><path
        d="M175.75,72.49 C175.75,94.54 175.75,118.56 175.75,142.31 " fill="none" id="AppExpression-to-Nombre" style="stroke:#595959;stroke-width:1.0;stroke-dasharray:7.0,7.0;"/><polygon fill="#595959" points="175.75,148.31,179.75,139.31,175.75,143.31,171.75,139.31,175.75,148.31" style="stroke:#595959;stroke-width:1.0;"/></g><!--link AppExpression to Operation--><g id="link_AppExpression_Operation"><path
        d="M270.25,72.49 C270.25,89.74 270.25,105.85 270.25,126.03 " fill="none" id="AppExpression-to-Operation" style="stroke:#595959;stroke-width:1.0;stroke-dasharray:7.0,7.0;"/><polygon fill="#595959" points="270.25,132.03,274.25,123.03,270.25,127.03,266.25,123.03,270.25,132.03" style="stroke:#595959;stroke-width:1.0;"/></g><!--link Nombre to Expression--><g id="link_Nombre_Expression"><path
        d="M105.5,225.43 C105.5,270.21 105.5,338.05 105.5,338.05 C105.5,338.05 171.51,338.05 241.74,338.05 " fill="none" id="Nombre-to-Expression" style="stroke:#008200;stroke-width:1.0;stroke-dasharray:7.0,7.0;"/><polygon fill="none" points="259.74,338.05,241.74,332.05,241.74,344.05,259.74,338.05" style="stroke:#008200;stroke-width:1.0;"/></g><!--link Operation to Expression--><g id="link_Operation_Expression"><path
        d="M306.75,241.79 C306.75,261.51 306.75,265.25 306.75,283.05 " fill="none" id="Operation-to-Expression" style="stroke:#008200;stroke-width:1.0;stroke-dasharray:7.0,7.0;"/><polygon fill="none" points="306.75,301.05,312.75,283.05,300.75,283.05,306.75,301.05" style="stroke:#008200;stroke-width:1.0;"/></g><!--link Operation to Expression--><g id="link_Operation_Expression"><path
        d="M353.5,253.79 C353.5,273.51 353.5,277.25 353.5,295.05 " fill="none" id="Operation-Expression" style="stroke:#595959;stroke-width:1.0;"/><polygon fill="#595959" points="353.5,241.79,349.5,247.79,353.5,253.79,357.5,247.79,353.5,241.79" style="stroke:#595959;stroke-width:1.0;"/><polygon fill="#595959" points="353.5,301.05,357.5,292.05,353.5,296.05,349.5,292.05,353.5,301.05" style="stroke:#595959;stroke-width:1.0;"/><text fill="#000000" font-family="Verdana" font-size="13" lengthAdjust="spacing" textLength="8" x="345.0125" y="261.4695">1</text><text fill="#000000" font-family="Verdana" font-size="13" lengthAdjust="spacing" textLength="118" x="226.4656" y="275.2174">expressionGauche</text><text fill="#000000" font-family="Verdana" font-size="13" lengthAdjust="spacing" textLength="8" x="281.4656" y="290.3502">1</text></g><!--link Operation to Expression--><g id="link_Operation_Expression"><path
        d="M400.25,253.79 C400.25,273.51 400.25,277.25 400.25,295.05 " fill="none" id="Operation-Expression-1" style="stroke:#595959;stroke-width:1.0;"/><polygon fill="#595959" points="400.25,241.79,396.25,247.79,400.25,253.79,404.25,247.79,400.25,241.79" style="stroke:#595959;stroke-width:1.0;"/><polygon fill="#595959" points="400.25,301.05,404.25,292.05,400.25,296.05,396.25,292.05,400.25,301.05" style="stroke:#595959;stroke-width:1.0;"/><text fill="#000000" font-family="Verdana" font-size="13" lengthAdjust="spacing" textLength="8" x="397.4602" y="261.4695">1</text><text fill="#000000" font-family="Verdana" font-size="13" lengthAdjust="spacing" textLength="108" x="415.6773" y="275.2174">expressionDroite</text><text fill="#000000" font-family="Verdana" font-size="13" lengthAdjust="spacing" textLength="8" x="465.6773" y="290.3502">1</text></g><!--SRC=[dP9FIyGm4CNl-HHZlQn_2bKGT5aAWk9D3uANTHVITBJ1D1EcwQA8tzrijjkjFSZgv9JXbvStBpdm5TO8paXjXIS7dg0Wxwc6KZCghycAvarR9rdMOBH5_-4GY7r5GYWZcmQkdRjzTunD4sZu500dK0V1oQDdRL_dYwCfh4YNuajewv5Vf48Od9ZDODVFyqv1IQDQW_ma3ROy2HebjON1eBAvzfxgWZ7IAQmYrJDx2JmuPEctdbEWk8yogf8SUzZRl9Ejgd0wC3u2RfYq7mE_sX0_auDqVdXnjLwdfMmgB1Tf3jsOUw7zGABBPbk1phBByophwIKCNo2KsANnpoF9MGB7Er_nJwrj9UCCdsqW1odzMMQJz4Zc6m00]--></g></svg>