<?xml version="1.0" encoding="us-ascii" standalone="no"?>
<svg xmlns="http://www.w3.org/2000/svg" xmlns:xlink="http://www.w3.org/1999/xlink" contentStyleType="text/css"
     height="709.8px" preserveAspectRatio="none" style="width:1360px;height:709px;background:#FFFFFF;" version="1.1"
     viewBox="0 0 1360 709" width="1360.8px" zoomAndPan="magnify">
    <defs/>
    <g><!--class Charts-->
        <g id="elem_Charts">
            <rect fill="#F1F1F1" height="67.2" id="Charts" rx="3.5" ry="3.5"
                  style="stroke:#181818;stroke-width:0.6999999999999998;" width="103.6" x="394.1" y="334.6"/>
            <ellipse cx="415.1" cy="357" fill="#A9DCDF" rx="15.4" ry="15.4"
                     style="stroke:#181818;stroke-width:1.3999999999999997;"/>
            <path d="M418.1625,359.4719 L412.3656,359.4719 L411.775,360.9156 L412.3656,360.9156 Q413.2187,360.9156 413.5906,361.2437 Q413.9625,361.5719 413.9625,362.1187 Q413.9625,362.6437 413.5906,362.9719 Q413.2187,363.3 412.3656,363.3 L409.15,363.3 Q408.2969,363.3 407.9469,362.9719 Q407.575,362.6437 407.575,362.0969 Q407.575,361.5719 407.9687,361.2437 Q408.3406,360.8937 409.2156,360.9156 L412.9562,351.5969 L411.4031,351.5969 Q410.55,351.5969 410.1781,351.2687 Q409.8062,350.9406 409.8062,350.3937 Q409.8062,349.8687 410.1781,349.5406 Q410.55,349.2125 411.4031,349.2125 L416.5437,349.2125 L421.2906,360.9156 Q422.1219,360.9156 422.3844,361.1125 Q422.9312,361.4844 422.9312,362.1187 Q422.9312,362.6437 422.5594,362.9719 Q422.2094,363.3 421.3562,363.3 L418.1406,363.3 Q417.2875,363.3 416.9156,362.9719 Q416.5437,362.6437 416.5437,362.0969 Q416.5437,361.5719 416.9156,361.2437 Q417.2875,360.9156 418.1406,360.9156 L418.7312,360.9156 L418.1625,359.4719 Z M417.1562,357.0875 L415.2531,352.3625 L413.3281,357.0875 L417.1562,357.0875 Z "
                  fill="#000000"/>
            <text fill="#000000" font-family="sans-serif" font-size="19.6" font-style="italic" lengthAdjust="spacing"
                  textLength="58.8" x="434.7" y="365.1156">Charts
            </text>
            <line style="stroke:#181818;stroke-width:0.6999999999999998;" x1="395.5" x2="496.3" y1="379.4" y2="379.4"/>
            <line style="stroke:#181818;stroke-width:0.6999999999999998;" x1="395.5" x2="496.3" y1="390.6" y2="390.6"/>
        </g><!--class Circle-->
        <g id="elem_Circle">
            <rect fill="#F1F1F1" height="171.4781" id="Circle" rx="3.5" ry="3.5"
                  style="stroke:#181818;stroke-width:0.6999999999999998;" width="243.6" x="11.2" y="9.8"/>
            <ellipse cx="101.85" cy="32.2" fill="#ADD1B2" rx="15.4" ry="15.4"
                     style="stroke:#181818;stroke-width:1.3999999999999997;"/>
            <path d="M105.7219,26.425 Q105.9406,26.1187 106.2031,25.9656 Q106.4656,25.8125 106.7719,25.8125 Q107.2969,25.8125 107.625,26.1844 Q107.9531,26.5344 107.9531,27.3875 L107.9531,29.4219 Q107.9531,30.275 107.625,30.6469 Q107.2969,31.0187 106.7719,31.0187 Q106.2906,31.0187 106.0062,30.7344 Q105.7219,30.4719 105.5687,29.75 Q105.5031,29.2469 105.2406,28.9844 Q104.7812,28.4594 103.9281,28.1531 Q103.075,27.8469 102.2,27.8469 Q101.1281,27.8469 100.2312,28.3062 Q99.3562,28.7656 98.6562,29.8156 Q97.9781,30.8656 97.9781,32.3094 L97.9781,33.8406 Q97.9781,35.5687 99.225,36.7281 Q100.4719,37.8656 102.7031,37.8656 Q104.0156,37.8656 104.9344,37.5156 Q105.4812,37.2969 106.0719,36.6844 Q106.4437,36.3125 106.6406,36.2031 Q106.8594,36.0937 107.1437,36.0937 Q107.6031,36.0937 107.9531,36.4656 Q108.325,36.8156 108.325,37.2969 Q108.325,37.7781 107.8437,38.3469 Q107.1437,39.1562 106.0281,39.6156 Q104.5187,40.25 102.7031,40.25 Q100.5812,40.25 98.8969,39.375 Q97.5187,38.675 96.5562,37.1875 Q95.5937,35.6781 95.5937,33.8844 L95.5937,32.2656 Q95.5937,30.4062 96.4469,28.8094 Q97.3219,27.1906 98.8531,26.3375 Q100.3844,25.4625 102.1125,25.4625 Q103.1406,25.4625 104.0375,25.7031 Q104.9562,25.9219 105.7219,26.425 Z "
                  fill="#000000"/>
            <text fill="#000000" font-family="sans-serif" font-size="19.6" lengthAdjust="spacing" textLength="50.4"
                  x="130.55" y="40.3156">Circle
            </text>
            <line style="stroke:#181818;stroke-width:0.6999999999999998;" x1="12.6" x2="253.4" y1="54.6" y2="54.6"/>
            <rect fill="none" height="8.4" style="stroke:#C82930;stroke-width:1.3999999999999997;" width="8.4" x="22.4"
                  y="71.1348"/>
            <text fill="#000000" font-family="sans-serif" font-size="19.6" lengthAdjust="spacing" textLength="89.6"
                  x="39.2" y="81.3504">cx: double
            </text>
            <rect fill="none" height="8.4" style="stroke:#C82930;stroke-width:1.3999999999999997;" width="8.4" x="22.4"
                  y="97.2043"/>
            <text fill="#000000" font-family="sans-serif" font-size="19.6" lengthAdjust="spacing" textLength="91"
                  x="39.2" y="107.4199">cy: double
            </text>
            <rect fill="none" height="8.4" style="stroke:#C82930;stroke-width:1.3999999999999997;" width="8.4" x="22.4"
                  y="123.2738"/>
            <text fill="#000000" font-family="sans-serif" font-size="19.6" lengthAdjust="spacing" textLength="78.4"
                  x="39.2" y="133.4895">r: double
            </text>
            <line style="stroke:#181818;stroke-width:0.6999999999999998;" x1="12.6" x2="253.4" y1="144.0086"
                  y2="144.0086"/>
            <ellipse cx="26.6" cy="164.7434" fill="#84BE84" rx="4.2" ry="4.2"
                     style="stroke:#038048;stroke-width:1.3999999999999997;"/>
            <text fill="#000000" font-family="sans-serif" font-size="19.6" lengthAdjust="spacing" textLength="207.2"
                  x="39.2" y="170.759">getParameters(): String
            </text>
        </g><!--class Group-->
        <g id="elem_Group">
            <rect fill="#F1F1F1" height="119.3391" id="Group" rx="3.5" ry="3.5"
                  style="stroke:#181818;stroke-width:0.6999999999999998;" width="211.4" x="340.2" y="165.9"/>
            <ellipse cx="411.95" cy="188.3" fill="#ADD1B2" rx="15.4" ry="15.4"
                     style="stroke:#181818;stroke-width:1.3999999999999997;"/>
            <path d="M415.8219,182.525 Q416.0406,182.2187 416.3031,182.0656 Q416.5656,181.9125 416.8719,181.9125 Q417.3969,181.9125 417.725,182.2844 Q418.0531,182.6344 418.0531,183.4875 L418.0531,185.5219 Q418.0531,186.375 417.725,186.7469 Q417.3969,187.1187 416.8719,187.1187 Q416.3906,187.1187 416.1062,186.8344 Q415.8219,186.5719 415.6687,185.85 Q415.6031,185.3469 415.3406,185.0844 Q414.8812,184.5594 414.0281,184.2531 Q413.175,183.9469 412.3,183.9469 Q411.2281,183.9469 410.3312,184.4062 Q409.4562,184.8656 408.7562,185.9156 Q408.0781,186.9656 408.0781,188.4094 L408.0781,189.9406 Q408.0781,191.6687 409.325,192.8281 Q410.5719,193.9656 412.8031,193.9656 Q414.1156,193.9656 415.0344,193.6156 Q415.5812,193.3969 416.1719,192.7844 Q416.5437,192.4125 416.7406,192.3031 Q416.9594,192.1937 417.2437,192.1937 Q417.7031,192.1937 418.0531,192.5656 Q418.425,192.9156 418.425,193.3969 Q418.425,193.8781 417.9437,194.4469 Q417.2437,195.2562 416.1281,195.7156 Q414.6187,196.35 412.8031,196.35 Q410.6812,196.35 408.9969,195.475 Q407.6187,194.775 406.6562,193.2875 Q405.6937,191.7781 405.6937,189.9844 L405.6937,188.3656 Q405.6937,186.5062 406.5469,184.9094 Q407.4219,183.2906 408.9531,182.4375 Q410.4844,181.5625 412.2125,181.5625 Q413.2406,181.5625 414.1375,181.8031 Q415.0562,182.0219 415.8219,182.525 Z "
                  fill="#000000"/>
            <text fill="#000000" font-family="sans-serif" font-size="19.6" lengthAdjust="spacing" textLength="56"
                  x="440.65" y="196.4156">Group
            </text>
            <line style="stroke:#181818;stroke-width:0.6999999999999998;" x1="341.6" x2="550.2" y1="210.7" y2="210.7"/>
            <line style="stroke:#181818;stroke-width:0.6999999999999998;" x1="341.6" x2="550.2" y1="221.9" y2="221.9"/>
            <ellipse cx="355.6" cy="242.6348" fill="#84BE84" rx="4.2" ry="4.2"
                     style="stroke:#038048;stroke-width:1.3999999999999997;"/>
            <text fill="#000000" font-family="sans-serif" font-size="19.6" lengthAdjust="spacing" textLength="154"
                  x="368.2" y="248.6504">add(Charts): void
            </text>
            <ellipse cx="355.6" cy="268.7043" fill="#84BE84" rx="4.2" ry="4.2"
                     style="stroke:#038048;stroke-width:1.3999999999999997;"/>
            <text fill="#000000" font-family="sans-serif" font-size="19.6" lengthAdjust="spacing" textLength="175"
                  x="368.2" y="274.7199">getContent(): String
            </text>
        </g><!--class Rectangle-->
        <g id="elem_Rectangle">
            <rect fill="#F1F1F1" height="197.5477" id="Rectangle" rx="3.5" ry="3.5"
                  style="stroke:#181818;stroke-width:0.6999999999999998;" width="243.6" x="11.2" y="230.3"/>
            <ellipse cx="82.25" cy="252.7" fill="#ADD1B2" rx="15.4" ry="15.4"
                     style="stroke:#181818;stroke-width:1.3999999999999997;"/>
            <path d="M86.1219,246.925 Q86.3406,246.6187 86.6031,246.4656 Q86.8656,246.3125 87.1719,246.3125 Q87.6969,246.3125 88.025,246.6844 Q88.3531,247.0344 88.3531,247.8875 L88.3531,249.9219 Q88.3531,250.775 88.025,251.1469 Q87.6969,251.5187 87.1719,251.5187 Q86.6906,251.5187 86.4062,251.2344 Q86.1219,250.9719 85.9687,250.25 Q85.9031,249.7469 85.6406,249.4844 Q85.1812,248.9594 84.3281,248.6531 Q83.475,248.3469 82.6,248.3469 Q81.5281,248.3469 80.6312,248.8062 Q79.7562,249.2656 79.0562,250.3156 Q78.3781,251.3656 78.3781,252.8094 L78.3781,254.3406 Q78.3781,256.0687 79.625,257.2281 Q80.8719,258.3656 83.1031,258.3656 Q84.4156,258.3656 85.3344,258.0156 Q85.8812,257.7969 86.4719,257.1844 Q86.8437,256.8125 87.0406,256.7031 Q87.2594,256.5937 87.5437,256.5937 Q88.0031,256.5937 88.3531,256.9656 Q88.725,257.3156 88.725,257.7969 Q88.725,258.2781 88.2437,258.8469 Q87.5437,259.6562 86.4281,260.1156 Q84.9187,260.75 83.1031,260.75 Q80.9812,260.75 79.2969,259.875 Q77.9187,259.175 76.9562,257.6875 Q75.9937,256.1781 75.9937,254.3844 L75.9937,252.7656 Q75.9937,250.9062 76.8469,249.3094 Q77.7219,247.6906 79.2531,246.8375 Q80.7844,245.9625 82.5125,245.9625 Q83.5406,245.9625 84.4375,246.2031 Q85.3562,246.4219 86.1219,246.925 Z "
                  fill="#000000"/>
            <text fill="#000000" font-family="sans-serif" font-size="19.6" lengthAdjust="spacing" textLength="89.6"
                  x="110.95" y="260.8156">Rectangle
            </text>
            <line style="stroke:#181818;stroke-width:0.6999999999999998;" x1="12.6" x2="253.4" y1="275.1" y2="275.1"/>
            <rect fill="none" height="8.4" style="stroke:#C82930;stroke-width:1.3999999999999997;" width="8.4" x="22.4"
                  y="291.6348"/>
            <text fill="#000000" font-family="sans-serif" font-size="19.6" lengthAdjust="spacing" textLength="116.2"
                  x="39.2" y="301.8504">width: double
            </text>
            <rect fill="none" height="8.4" style="stroke:#C82930;stroke-width:1.3999999999999997;" width="8.4" x="22.4"
                  y="317.7043"/>
            <text fill="#000000" font-family="sans-serif" font-size="19.6" lengthAdjust="spacing" textLength="81.2"
                  x="39.2" y="327.9199">y: double
            </text>
            <rect fill="none" height="8.4" style="stroke:#C82930;stroke-width:1.3999999999999997;" width="8.4" x="22.4"
                  y="343.7738"/>
            <text fill="#000000" font-family="sans-serif" font-size="19.6" lengthAdjust="spacing" textLength="126"
                  x="39.2" y="353.9895">height: double
            </text>
            <rect fill="none" height="8.4" style="stroke:#C82930;stroke-width:1.3999999999999997;" width="8.4" x="22.4"
                  y="369.8434"/>
            <text fill="#000000" font-family="sans-serif" font-size="19.6" lengthAdjust="spacing" textLength="79.8"
                  x="39.2" y="380.059">x: double
            </text>
            <line style="stroke:#181818;stroke-width:0.6999999999999998;" x1="12.6" x2="253.4" y1="390.5781"
                  y2="390.5781"/>
            <ellipse cx="26.6" cy="411.3129" fill="#84BE84" rx="4.2" ry="4.2"
                     style="stroke:#038048;stroke-width:1.3999999999999997;"/>
            <text fill="#000000" font-family="sans-serif" font-size="19.6" lengthAdjust="spacing" textLength="207.2"
                  x="39.2" y="417.3285">getParameters(): String
            </text>
        </g><!--class SVG-->
        <g id="elem_SVG">
            <rect fill="#F1F1F1" height="223.6172" id="SVG" rx="3.5" ry="3.5"
                  style="stroke:#181818;stroke-width:0.6999999999999998;" width="246.4" x="9.8" y="477.4"/>
            <ellipse cx="106.75" cy="499.8" fill="#ADD1B2" rx="15.4" ry="15.4"
                     style="stroke:#181818;stroke-width:1.3999999999999997;"/>
            <path d="M110.6219,494.025 Q110.8406,493.7187 111.1031,493.5656 Q111.3656,493.4125 111.6719,493.4125 Q112.1969,493.4125 112.525,493.7844 Q112.8531,494.1344 112.8531,494.9875 L112.8531,497.0219 Q112.8531,497.875 112.525,498.2469 Q112.1969,498.6187 111.6719,498.6187 Q111.1906,498.6187 110.9062,498.3344 Q110.6219,498.0719 110.4687,497.35 Q110.4031,496.8469 110.1406,496.5844 Q109.6812,496.0594 108.8281,495.7531 Q107.975,495.4469 107.1,495.4469 Q106.0281,495.4469 105.1312,495.9062 Q104.2562,496.3656 103.5562,497.4156 Q102.8781,498.4656 102.8781,499.9094 L102.8781,501.4406 Q102.8781,503.1687 104.125,504.3281 Q105.3719,505.4656 107.6031,505.4656 Q108.9156,505.4656 109.8344,505.1156 Q110.3812,504.8969 110.9719,504.2844 Q111.3437,503.9125 111.5406,503.8031 Q111.7594,503.6937 112.0437,503.6937 Q112.5031,503.6937 112.8531,504.0656 Q113.225,504.4156 113.225,504.8969 Q113.225,505.3781 112.7437,505.9469 Q112.0437,506.7562 110.9281,507.2156 Q109.4187,507.85 107.6031,507.85 Q105.4812,507.85 103.7969,506.975 Q102.4187,506.275 101.4562,504.7875 Q100.4937,503.2781 100.4937,501.4844 L100.4937,499.8656 Q100.4937,498.0062 101.3469,496.4094 Q102.2219,494.7906 103.7531,493.9375 Q105.2844,493.0625 107.0125,493.0625 Q108.0406,493.0625 108.9375,493.3031 Q109.8562,493.5219 110.6219,494.025 Z "
                  fill="#000000"/>
            <text fill="#000000" font-family="sans-serif" font-size="19.6" lengthAdjust="spacing" textLength="40.6"
                  x="135.45" y="507.9156">SVG
            </text>
            <line style="stroke:#181818;stroke-width:0.6999999999999998;" x1="11.2" x2="254.8" y1="522.2" y2="522.2"/>
            <rect fill="none" height="8.4" style="stroke:#C82930;stroke-width:1.3999999999999997;" width="8.4" x="21"
                  y="538.7348"/>
            <text fill="#000000" font-family="sans-serif" font-size="19.6" lengthAdjust="spacing" textLength="116.2"
                  x="37.8" y="548.9504">width: double
            </text>
            <rect fill="none" height="8.4" style="stroke:#C82930;stroke-width:1.3999999999999997;" width="8.4" x="21"
                  y="564.8043"/>
            <text fill="#000000" font-family="sans-serif" font-size="19.6" lengthAdjust="spacing" textLength="126"
                  x="37.8" y="575.0199">height: double
            </text>
            <line style="stroke:#181818;stroke-width:0.6999999999999998;" x1="11.2" x2="254.8" y1="585.5391"
                  y2="585.5391"/>
            <ellipse cx="25.2" cy="606.2738" fill="#84BE84" rx="4.2" ry="4.2"
                     style="stroke:#038048;stroke-width:1.3999999999999997;"/>
            <text fill="#000000" font-family="sans-serif" font-size="19.6" lengthAdjust="spacing" textLength="210"
                  x="37.8" y="612.2895">saveAsFile(String): void
            </text>
            <ellipse cx="25.2" cy="632.3434" fill="#84BE84" rx="4.2" ry="4.2"
                     style="stroke:#038048;stroke-width:1.3999999999999997;"/>
            <text fill="#000000" font-family="sans-serif" font-size="19.6" lengthAdjust="spacing" textLength="175"
                  x="37.8" y="638.359">getContent(): String
            </text>
            <ellipse cx="25.2" cy="658.4129" fill="#84BE84" rx="4.2" ry="4.2"
                     style="stroke:#038048;stroke-width:1.3999999999999997;"/>
            <text fill="#000000" font-family="sans-serif" font-size="19.6" lengthAdjust="spacing" textLength="154"
                  x="37.8" y="664.4285">add(Charts): void
            </text>
            <ellipse cx="25.2" cy="684.4824" fill="#84BE84" rx="4.2" ry="4.2"
                     style="stroke:#038048;stroke-width:1.3999999999999997;"/>
            <text fill="#000000" font-family="sans-serif" font-size="19.6" lengthAdjust="spacing" textLength="207.2"
                  x="37.8" y="690.498">getParameters(): String
            </text>
        </g><!--class Style-->
        <g id="elem_Style">
            <rect fill="#F1F1F1" height="406.1039" id="Style" rx="3.5" ry="3.5"
                  style="stroke:#181818;stroke-width:0.6999999999999998;" width="302.4" x="1048.6" y="261.8"/>
            <ellipse cx="1172.15" cy="284.2" fill="#ADD1B2" rx="15.4" ry="15.4"
                     style="stroke:#181818;stroke-width:1.3999999999999997;"/>
            <path d="M1176.0219,278.425 Q1176.2406,278.1187 1176.5031,277.9656 Q1176.7656,277.8125 1177.0719,277.8125 Q1177.5969,277.8125 1177.925,278.1844 Q1178.2531,278.5344 1178.2531,279.3875 L1178.2531,281.4219 Q1178.2531,282.275 1177.925,282.6469 Q1177.5969,283.0187 1177.0719,283.0187 Q1176.5906,283.0187 1176.3062,282.7344 Q1176.0219,282.4719 1175.8687,281.75 Q1175.8031,281.2469 1175.5406,280.9844 Q1175.0812,280.4594 1174.2281,280.1531 Q1173.375,279.8469 1172.5,279.8469 Q1171.4281,279.8469 1170.5312,280.3062 Q1169.6562,280.7656 1168.9562,281.8156 Q1168.2781,282.8656 1168.2781,284.3094 L1168.2781,285.8406 Q1168.2781,287.5687 1169.525,288.7281 Q1170.7719,289.8656 1173.0031,289.8656 Q1174.3156,289.8656 1175.2344,289.5156 Q1175.7812,289.2969 1176.3719,288.6844 Q1176.7437,288.3125 1176.9406,288.2031 Q1177.1594,288.0937 1177.4437,288.0937 Q1177.9031,288.0937 1178.2531,288.4656 Q1178.625,288.8156 1178.625,289.2969 Q1178.625,289.7781 1178.1437,290.3469 Q1177.4437,291.1562 1176.3281,291.6156 Q1174.8187,292.25 1173.0031,292.25 Q1170.8812,292.25 1169.1969,291.375 Q1167.8187,290.675 1166.8562,289.1875 Q1165.8937,287.6781 1165.8937,285.8844 L1165.8937,284.2656 Q1165.8937,282.4062 1166.7469,280.8094 Q1167.6219,279.1906 1169.1531,278.3375 Q1170.6844,277.4625 1172.4125,277.4625 Q1173.4406,277.4625 1174.3375,277.7031 Q1175.2562,277.9219 1176.0219,278.425 Z "
                  fill="#000000"/>
            <text fill="#000000" font-family="sans-serif" font-size="19.6" lengthAdjust="spacing" textLength="43.4"
                  x="1200.85" y="292.3156">Style
            </text>
            <line style="stroke:#181818;stroke-width:0.6999999999999998;" x1="1050" x2="1349.6" y1="306.6" y2="306.6"/>
            <rect fill="none" height="8.4" style="stroke:#C82930;stroke-width:1.3999999999999997;" width="8.4"
                  x="1059.8" y="323.1348"/>
            <text fill="#000000" font-family="sans-serif" font-size="19.6" lengthAdjust="spacing" textLength="81.2"
                  x="1076.6" y="333.3504">fill: String
            </text>
            <rect fill="none" height="8.4" style="stroke:#C82930;stroke-width:1.3999999999999997;" width="8.4"
                  x="1059.8" y="349.2043"/>
            <text fill="#000000" font-family="sans-serif" font-size="19.6" lengthAdjust="spacing" textLength="117.6"
                  x="1076.6" y="359.4199">stroke: String
            </text>
            <rect fill="none" height="8.4" style="stroke:#C82930;stroke-width:1.3999999999999997;" width="8.4"
                  x="1059.8" y="375.2738"/>
            <text fill="#000000" font-family="sans-serif" font-size="19.6" lengthAdjust="spacing" textLength="179.2"
                  x="1076.6" y="385.4895">strokeWidth: Double
            </text>
            <rect fill="none" height="8.4" style="stroke:#C82930;stroke-width:1.3999999999999997;" width="8.4"
                  x="1059.8" y="401.3434"/>
            <text fill="#000000" font-family="sans-serif" font-size="19.6" lengthAdjust="spacing" textLength="159.6"
                  x="1076.6" y="411.559">fillOpacity: Double
            </text>
            <line style="stroke:#181818;stroke-width:0.6999999999999998;" x1="1050" x2="1349.6" y1="422.0781"
                  y2="422.0781"/>
            <ellipse cx="1064" cy="442.8129" fill="#84BE84" rx="4.2" ry="4.2"
                     style="stroke:#038048;stroke-width:1.3999999999999997;"/>
            <text fill="#000000" font-family="sans-serif" font-size="19.6" lengthAdjust="spacing" textLength="172.2"
                  x="1076.6" y="448.8285">setFill(String): Style
            </text>
            <ellipse cx="1064" cy="468.8824" fill="#84BE84" rx="4.2" ry="4.2"
                     style="stroke:#038048;stroke-width:1.3999999999999997;"/>
            <text fill="#000000" font-family="sans-serif" font-size="19.6" lengthAdjust="spacing" textLength="208.6"
                  x="1076.6" y="474.898">getFillOpacity(): Double
            </text>
            <ellipse cx="1064" cy="494.952" fill="#84BE84" rx="4.2" ry="4.2"
                     style="stroke:#038048;stroke-width:1.3999999999999997;"/>
            <text fill="#000000" font-family="sans-serif" font-size="19.6" lengthAdjust="spacing" textLength="250.6"
                  x="1076.6" y="500.9676">setFillOpacity(Double): Style
            </text>
            <ellipse cx="1064" cy="521.0215" fill="#84BE84" rx="4.2" ry="4.2"
                     style="stroke:#038048;stroke-width:1.3999999999999997;"/>
            <text fill="#000000" font-family="sans-serif" font-size="19.6" lengthAdjust="spacing" textLength="134.4"
                  x="1076.6" y="527.0371">toSVG(): String
            </text>
            <ellipse cx="1064" cy="547.091" fill="#84BE84" rx="4.2" ry="4.2"
                     style="stroke:#038048;stroke-width:1.3999999999999997;"/>
            <text fill="#000000" font-family="sans-serif" font-size="19.6" lengthAdjust="spacing" textLength="130.2"
                  x="1076.6" y="553.1066">getFill(): String
            </text>
            <ellipse cx="1064" cy="573.1605" fill="#84BE84" rx="4.2" ry="4.2"
                     style="stroke:#038048;stroke-width:1.3999999999999997;"/>
            <text fill="#000000" font-family="sans-serif" font-size="19.6" lengthAdjust="spacing" textLength="204.4"
                  x="1076.6" y="579.1762">setStroke(String): Style
            </text>
            <ellipse cx="1064" cy="599.2301" fill="#84BE84" rx="4.2" ry="4.2"
                     style="stroke:#038048;stroke-width:1.3999999999999997;"/>
            <text fill="#000000" font-family="sans-serif" font-size="19.6" lengthAdjust="spacing" textLength="162.4"
                  x="1076.6" y="605.2457">getStroke(): String
            </text>
            <ellipse cx="1064" cy="625.2996" fill="#84BE84" rx="4.2" ry="4.2"
                     style="stroke:#038048;stroke-width:1.3999999999999997;"/>
            <text fill="#000000" font-family="sans-serif" font-size="19.6" lengthAdjust="spacing" textLength="224"
                  x="1076.6" y="631.3152">getStrokeWidth(): Double
            </text>
            <ellipse cx="1064" cy="651.3691" fill="#84BE84" rx="4.2" ry="4.2"
                     style="stroke:#038048;stroke-width:1.3999999999999997;"/>
            <text fill="#000000" font-family="sans-serif" font-size="19.6" lengthAdjust="spacing" textLength="266"
                  x="1076.6" y="657.3848">setStrokeWidth(Double): Style
            </text>
        </g><!--class Tag-->
        <g id="elem_Tag">
            <rect fill="#F1F1F1" height="223.6172" id="Tag" rx="3.5" ry="3.5"
                  style="stroke:#181818;stroke-width:0.6999999999999998;" width="243.6" x="721" y="352.8"/>
            <ellipse cx="819.35" cy="375.2" fill="#A9DCDF" rx="15.4" ry="15.4"
                     style="stroke:#181818;stroke-width:1.3999999999999997;"/>
            <path d="M822.4125,377.6719 L816.6156,377.6719 L816.025,379.1156 L816.6156,379.1156 Q817.4687,379.1156 817.8406,379.4437 Q818.2125,379.7719 818.2125,380.3187 Q818.2125,380.8437 817.8406,381.1719 Q817.4687,381.5 816.6156,381.5 L813.4,381.5 Q812.5469,381.5 812.1969,381.1719 Q811.825,380.8437 811.825,380.2969 Q811.825,379.7719 812.2187,379.4437 Q812.5906,379.0937 813.4656,379.1156 L817.2062,369.7969 L815.6531,369.7969 Q814.8,369.7969 814.4281,369.4687 Q814.0562,369.1406 814.0562,368.5937 Q814.0562,368.0687 814.4281,367.7406 Q814.8,367.4125 815.6531,367.4125 L820.7937,367.4125 L825.5406,379.1156 Q826.3719,379.1156 826.6344,379.3125 Q827.1812,379.6844 827.1812,380.3187 Q827.1812,380.8437 826.8094,381.1719 Q826.4594,381.5 825.6062,381.5 L822.3906,381.5 Q821.5375,381.5 821.1656,381.1719 Q820.7937,380.8437 820.7937,380.2969 Q820.7937,379.7719 821.1656,379.4437 Q821.5375,379.1156 822.3906,379.1156 L822.9812,379.1156 L822.4125,377.6719 Z M821.4062,375.2875 L819.5031,370.5625 L817.5781,375.2875 L821.4062,375.2875 Z "
                  fill="#000000"/>
            <text fill="#000000" font-family="sans-serif" font-size="19.6" font-style="italic" lengthAdjust="spacing"
                  textLength="35" x="848.05" y="383.3156">Tag
            </text>
            <line style="stroke:#181818;stroke-width:0.6999999999999998;" x1="722.4" x2="963.2" y1="397.6" y2="397.6"/>
            <rect fill="none" height="8.4" style="stroke:#C82930;stroke-width:1.3999999999999997;" width="8.4" x="732.2"
                  y="414.1348"/>
            <text fill="#000000" font-family="sans-serif" font-size="19.6" lengthAdjust="spacing" textLength="112"
                  x="749" y="424.3504">name: String
            </text>
            <line style="stroke:#181818;stroke-width:0.6999999999999998;" x1="722.4" x2="963.2" y1="434.8695"
                  y2="434.8695"/>
            <ellipse cx="736.4" cy="455.6043" fill="#84BE84" rx="4.2" ry="4.2"
                     style="stroke:#038048;stroke-width:1.3999999999999997;"/>
            <text fill="#000000" font-family="sans-serif" font-size="19.6" lengthAdjust="spacing" textLength="175"
                  x="749" y="461.6199">setStyle(Style): void
            </text>
            <ellipse cx="736.4" cy="481.6738" fill="#84BE84" rx="4.2" ry="4.2"
                     style="stroke:#038048;stroke-width:1.3999999999999997;"/>
            <text fill="#000000" font-family="sans-serif" font-size="19.6" lengthAdjust="spacing" textLength="140"
                  x="749" y="487.6895">getStyle(): Style
            </text>
            <ellipse cx="736.4" cy="507.7434" fill="#84BE84" rx="4.2" ry="4.2"
                     style="stroke:#038048;stroke-width:1.3999999999999997;"/>
            <text fill="#000000" font-family="sans-serif" font-size="19.6" lengthAdjust="spacing" textLength="175"
                  x="749" y="513.759">getContent(): String
            </text>
            <ellipse cx="736.4" cy="533.8129" fill="#84BE84" rx="4.2" ry="4.2"
                     style="stroke:#038048;stroke-width:1.3999999999999997;"/>
            <text fill="#000000" font-family="sans-serif" font-size="19.6" lengthAdjust="spacing" textLength="134.4"
                  x="749" y="539.8285">toSVG(): String
            </text>
            <ellipse cx="736.4" cy="559.8824" fill="#84BE84" rx="4.2" ry="4.2"
                     style="stroke:#038048;stroke-width:1.3999999999999997;"/>
            <text fill="#000000" font-family="sans-serif" font-size="19.6" lengthAdjust="spacing" textLength="207.2"
                  x="749" y="565.898">getParameters(): String
            </text>
        </g><!--link Charts to Tag-->
        <g id="link_Charts_Tag">
            <path d="M497.784,377.3 C554.106,377.3 620.788,377.3 695.576,377.3 " fill="none"
                  id="Charts-to-Tag" style="stroke:#181818;stroke-width:1.3999999999999997;"/>
            <polygon fill="none" points="720.776,377.3,695.576,368.9,695.576,385.7,720.776,377.3"
                     style="stroke:#181818;stroke-width:1.3999999999999997;"/>
        </g><!--link Circle to Charts-->
        <g id="link_Circle_Charts">
            <path
                  d="M255.22,173.25 C279.776,173.25 298.2,173.25 298.2,173.25 C298.2,173.25 298.2,357 298.2,357 C298.2,357 326.102,357 368.62,357 "
                  fill="none" id="Circle-to-Charts" style="stroke:#181818;stroke-width:1.3999999999999997;"/>
            <polygon fill="none" points="393.82,357,368.62,348.6,368.62,365.4,393.82,357"
                     style="stroke:#181818;stroke-width:1.3999999999999997;"/>
        </g><!--link Group to Charts-->
        <g id="link_Group_Charts">
            <path d="M463.4,285.138 C463.4,301.952 463.4,294.448 463.4,309.176 " fill="none"
                  id="Group-to-Charts" style="stroke:#181818;stroke-width:1.3999999999999997;"/>
            <polygon fill="none" points="463.4,334.376,471.8,309.176,455,309.176,463.4,334.376"
                     style="stroke:#181818;stroke-width:1.3999999999999997;"/>
        </g><!--link Group to Charts-->
        <g id="link_Group_Charts">
            <path d="M429.8,301.938 C429.8,318.752 429.8,311.248 429.8,325.976 " fill="none"
                  id="Group-Charts" style="stroke:#181818;stroke-width:1.3999999999999997;"/>
            <polygon fill="none" points="429.8,285.138,424.2,293.538,429.8,301.938,435.4,293.538,429.8,285.138"
                     style="stroke:#181818;stroke-width:1.3999999999999997;"/>
            <polygon fill="#181818" points="429.8,334.376,435.4,321.776,429.8,327.376,424.2,321.776,429.8,334.376"
                     style="stroke:#181818;stroke-width:1.3999999999999997;"/>
            <text fill="#000000" font-family="sans-serif" font-size="18.2" lengthAdjust="spacing" textLength="33.6"
                  x="377.7567" y="316.2385">liste
            </text>
            <text fill="#000000" font-family="sans-serif" font-size="18.2" lengthAdjust="spacing" textLength="28"
                  x="383.3567" y="340.446">0..*
            </text>
        </g><!--link Rectangle to Charts-->
        <g id="link_Rectangle_Charts">
            <path d="M254.87,379.4 C303.086,379.4 330.722,379.4 368.578,379.4 " fill="none"
                  id="Rectangle-to-Charts" style="stroke:#181818;stroke-width:1.3999999999999997;"/>
            <polygon fill="none" points="393.778,379.4,368.578,371,368.578,387.8,393.778,379.4"
                     style="stroke:#181818;stroke-width:1.3999999999999997;"/>
        </g><!--link SVG to Charts-->
        <g id="link_SVG_Charts">
            <path
                  d="M273.294,510.538 C361.046,510.538 446.6,510.538 446.6,510.538 C446.6,510.538 446.6,452.424 446.6,410.326 "
                  fill="none" id="SVG-Charts" style="stroke:#181818;stroke-width:1.3999999999999997;"/>
            <polygon fill="none"
                     points="256.494,510.538,264.894,516.138,273.294,510.538,264.894,504.938,256.494,510.538"
                     style="stroke:#181818;stroke-width:1.3999999999999997;"/>
            <polygon fill="#181818" points="446.6,401.926,441,414.526,446.6,408.926,452.2,414.526,446.6,401.926"
                     style="stroke:#181818;stroke-width:1.3999999999999997;"/>
            <text fill="#000000" font-family="sans-serif" font-size="18.2" lengthAdjust="spacing" textLength="60.2"
                  x="380.7956" y="432.6092">content
            </text>
            <text fill="#000000" font-family="sans-serif" font-size="18.2" lengthAdjust="spacing" textLength="28"
                  x="412.9956" y="456.8166">0..*
            </text>
        </g><!--link SVG to Tag-->
        <g id="link_SVG_Tag">
            <path d="M256.228,543.662 C386.442,543.662 565.348,543.662 695.24,543.662 " fill="none"
                  id="SVG-to-Tag" style="stroke:#181818;stroke-width:1.3999999999999997;"/>
            <polygon fill="none" points="720.44,543.662,695.24,535.262,695.24,552.062,720.44,543.662"
                     style="stroke:#181818;stroke-width:1.3999999999999997;"/>
        </g><!--link Tag to Style-->
        <g id="link_Tag_Style">
            <path d="M981.456,464.8 C1008.322,464.8 1011.906,464.8 1039.78,464.8 " fill="none"
                  id="Tag-Style" style="stroke:#181818;stroke-width:1.3999999999999997;"/>
            <polygon fill="none" points="964.656,464.8,973.056,470.4,981.456,464.8,973.056,459.2,964.656,464.8"
                     style="stroke:#181818;stroke-width:1.3999999999999997;"/>
            <polygon fill="#181818" points="1048.18,464.8,1035.58,459.2,1041.18,464.8,1035.58,470.4,1048.18,464.8"
                     style="stroke:#181818;stroke-width:1.3999999999999997;"/>
            <text fill="#000000" font-family="sans-serif" font-size="18.2" lengthAdjust="spacing" textLength="39.2"
                  x="998.0112" y="485.9871">style
            </text>
            <text fill="#000000" font-family="sans-serif" font-size="18.2" lengthAdjust="spacing" textLength="30.8"
                  x="1006.4112" y="510.1945">0..1
            </text>
        </g><!--SRC=[bLFBJiCm4BpxArOz5QfKSEsX4WArHn11SE7Y9jl4geaZUriQGVyTEqwQLnyYD-zwnZEpMObh0bAWHP8In49ZH49bp6n4bdFDlq2A3Ad84PIcL376LuOqZmWYoOs1nvHhCenL9w4ZYV3300A8zZE8rNObqH-Bpb6tJXD8a5xSSqYepVXc1Y5faINiK3CljThc9V44U1oF_Rlsuaw9kAPuL1bXHgVmhzOOpvAZk6yHKzeHr9MNeakaKzh_Jt7ulZpxre1z0eRlyC4iXCInPxhgxM8KLxHHSKnYBQHiSGPWvwisUABquNqyDJuSzZddaQ2YLRTcaAmJsJWf7worBHgK4pV4rKtVwS19sLnx8LIKlQhb2alPPrHKpG5Ls7WTgcitU-eEWzruuqcLSMPdCHHNbBCkIexsx7odh_Vq3t0cZtFZz_yAk2y8Wj-vqyYghVL5MwkNsk_SfReAvZ2ImX1-whlfz7PKNsdMhGjrIm4Lr64ZRwg7RcvLQAVIfTc66XTE2RmV-QJ-0000]-->
    </g>
</svg>